<svg xmlns="http://www.w3.org/2000/svg" viewBox="0 0 48 48" width="48" height="48">
  <path fill="#1877F2" d="M24 4C12.95 4 4 12.95 4 24c0 9.88 7.22 18.06 16.67 19.59V29.72h-5.01V24h5.01v-4.36c0-4.95 2.95-7.69 7.47-7.69 2.16 0 4.43.39 4.43.39v4.86h-2.5c-2.46 0-3.22 1.53-3.22 3.1V24h5.48l-.88 5.72h-4.6v13.87C36.78 42.06 44 33.88 44 24 44 12.95 35.05 4 24 4z"/>
  <path fill="#fff" d="M33.15 29.72L34.03 24h-5.48v-3.7c0-1.57.76-3.1 3.22-3.1h2.5v-4.86s-2.27-.39-4.43-.39c-4.52 0-7.47 2.74-7.47 7.69V24h-5.01v5.72h5.01v13.87a20.14 20.14 0 006.18 0V29.72h4.6z"/>
</svg>
